<svg width="32" height="32" viewBox="0 0 32 32" fill="none" xmlns="http://www.w3.org/2000/svg">
<path d="M16.8184 0.75C17.2339 0.750086 17.6638 1.03254 17.6641 1.4834C17.6641 1.93453 17.2341 2.21769 16.8184 2.21777H3.02148C2.65202 2.21783 2.44141 2.45523 2.44141 2.64551V29.3545C2.44141 29.545 2.65168 29.7822 3.02148 29.7822H16.8184C17.2345 29.7823 17.6641 30.0656 17.6641 30.5166C17.6638 30.9675 17.2339 31.2499 16.8184 31.25H3.02148C1.81932 31.2499 0.75 30.4452 0.75 29.3545V2.64551C0.75 1.55484 1.81932 0.750057 3.02148 0.75H16.8184ZM21.6533 8.82617C21.978 8.56298 22.486 8.5628 22.8105 8.82617L30.9834 15.4639C31.1459 15.5959 31.2505 15.7869 31.25 16.001L31.2451 16.0801C31.2226 16.2615 31.1246 16.4224 30.9834 16.5371L22.8105 23.1738C22.6437 23.3097 22.4333 23.3721 22.2314 23.3721C22.0294 23.372 21.8201 23.3093 21.6533 23.1738H21.6523C21.4834 23.0362 21.3857 22.8435 21.3857 22.6377C21.3858 22.4318 21.4841 22.239 21.6533 22.1016L28.2637 16.7334H9.51855C9.10279 16.7334 8.67286 16.4512 8.67285 16C8.67285 15.5488 9.10279 15.2666 9.51855 15.2666H28.2637L21.6533 9.89941V9.89844C21.4841 9.76097 21.3858 9.56828 21.3857 9.3623C21.3858 9.15641 21.4838 8.96363 21.6533 8.82617Z" fill="#032B64" stroke="#032B64" stroke-width="0.5"/>
</svg>
