<svg width="28" height="28" viewBox="0 0 28 28" fill="none" xmlns="http://www.w3.org/2000/svg">
<path d="M5.25 15.4C5.25 15.0539 5.35264 14.7155 5.54493 14.4278C5.73722 14.14 6.01053 13.9157 6.3303 13.7832C6.65007 13.6508 7.00194 13.6161 7.34141 13.6836C7.68087 13.7511 7.99269 13.9178 8.23744 14.1626C8.48218 14.4073 8.64885 14.7191 8.71637 15.0586C8.7839 15.3981 8.74924 15.7499 8.61679 16.0697C8.48433 16.3895 8.26003 16.6628 7.97225 16.8551C7.68446 17.0474 7.34612 17.15 7 17.15C6.53587 17.15 6.09075 16.9656 5.76256 16.6374C5.43437 16.3092 5.25 15.8641 5.25 15.4ZM7 22.75C7.34612 22.75 7.68446 22.6474 7.97225 22.4551C8.26003 22.2628 8.48433 21.9895 8.61679 21.6697C8.74924 21.3499 8.7839 20.9981 8.71637 20.6586C8.64885 20.3191 8.48218 20.0073 8.23744 19.7626C7.99269 19.5178 7.68087 19.3511 7.34141 19.2836C7.00194 19.2161 6.65007 19.2508 6.3303 19.3832C6.01053 19.5157 5.73722 19.74 5.54493 20.0278C5.35264 20.3155 5.25 20.6539 5.25 21C5.25 21.4641 5.43437 21.9092 5.76256 22.2374C6.09075 22.5656 6.53587 22.75 7 22.75ZM14 17.15C14.3461 17.15 14.6845 17.0474 14.9722 16.8551C15.26 16.6628 15.4843 16.3895 15.6168 16.0697C15.7492 15.7499 15.7839 15.3981 15.7164 15.0586C15.6489 14.7191 15.4822 14.4073 15.2374 14.1626C14.9927 13.9178 14.6809 13.7511 14.3414 13.6836C14.0019 13.6161 13.6501 13.6508 13.3303 13.7832C13.0105 13.9157 12.7372 14.14 12.5449 14.4278C12.3526 14.7155 12.25 15.0539 12.25 15.4C12.25 15.8641 12.4344 16.3092 12.7626 16.6374C13.0908 16.9656 13.5359 17.15 14 17.15ZM14 22.75C14.3461 22.75 14.6845 22.6474 14.9722 22.4551C15.26 22.2628 15.4843 21.9895 15.6168 21.6697C15.7492 21.3499 15.7839 20.9981 15.7164 20.6586C15.6489 20.3191 15.4822 20.0073 15.2374 19.7626C14.9927 19.5178 14.6809 19.3511 14.3414 19.2836C14.0019 19.2161 13.6501 19.2508 13.3303 19.3832C13.0105 19.5157 12.7372 19.74 12.5449 20.0278C12.3526 20.3155 12.25 20.6539 12.25 21C12.25 21.4641 12.4344 21.9092 12.7626 22.2374C13.0908 22.5656 13.5359 22.75 14 22.75ZM21 17.15C21.3461 17.15 21.6845 17.0474 21.9722 16.8551C22.26 16.6628 22.4843 16.3895 22.6168 16.0697C22.7492 15.7499 22.7839 15.3981 22.7164 15.0586C22.6488 14.7191 22.4822 14.4073 22.2374 14.1626C21.9927 13.9178 21.6809 13.7511 21.3414 13.6836C21.0019 13.6161 20.6501 13.6508 20.3303 13.7832C20.0105 13.9157 19.7372 14.14 19.5449 14.4278C19.3526 14.7155 19.25 15.0539 19.25 15.4C19.25 15.8641 19.4344 16.3092 19.7626 16.6374C20.0907 16.9656 20.5359 17.15 21 17.15ZM28 7V23.8C28 24.9139 27.5575 25.9822 26.7698 26.7698C25.9822 27.5575 24.9139 28 23.8 28H4.2C3.08609 28 2.0178 27.5575 1.23015 26.7698C0.442499 25.9822 0 24.9139 0 23.8V7C0 5.88609 0.442499 4.8178 1.23015 4.03015C2.0178 3.2425 3.08609 2.8 4.2 2.8H5.6V1.4C5.6 1.0287 5.7475 0.672601 6.01005 0.41005C6.2726 0.1475 6.6287 0 7 0C7.3713 0 7.7274 0.1475 7.98995 0.41005C8.2525 0.672601 8.4 1.0287 8.4 1.4V2.8H19.6V1.4C19.6 1.0287 19.7475 0.672601 20.01 0.41005C20.2726 0.1475 20.6287 0 21 0C21.3713 0 21.7274 0.1475 21.99 0.41005C22.2525 0.672601 22.4 1.0287 22.4 1.4V2.8H23.8C24.9139 2.8 25.9822 3.2425 26.7698 4.03015C27.5575 4.8178 28 5.88609 28 7ZM2.8 7V8.4H25.2V7C25.2 6.6287 25.0525 6.2726 24.7899 6.01005C24.5274 5.7475 24.1713 5.6 23.8 5.6H4.2C3.8287 5.6 3.4726 5.7475 3.21005 6.01005C2.9475 6.2726 2.8 6.6287 2.8 7ZM25.2 11.2H2.8V23.8C2.8 24.1713 2.9475 24.5274 3.21005 24.7899C3.4726 25.0525 3.8287 25.2 4.2 25.2H23.8C24.1713 25.2 24.5274 25.0525 24.7899 24.7899C25.0525 24.5274 25.2 24.1713 25.2 23.8V11.2Z" fill="#032B64"/>
</svg>
