<svg width="31" height="31" viewBox="0 0 31 31" fill="none" xmlns="http://www.w3.org/2000/svg">
<path d="M25.234 0.766296C27.9952 0.766296 30.2329 3.02622 30.2331 5.76532V25.2341C30.2331 27.9953 27.9733 30.2331 25.234 30.2331H5.7653C3.00421 30.2329 0.766273 27.9732 0.766273 25.2341V5.76532C0.766489 3.00436 3.02633 0.766511 5.7653 0.766296H25.234ZM5.76627 2.68719C4.07868 2.68719 2.68733 4.07375 2.68717 5.76532V25.2341C2.68717 26.9218 4.07457 28.3132 5.76627 28.3132H7.2487V20.736C7.2487 20.1982 7.69026 19.7595 8.20866 19.7595C8.74026 19.7596 9.16862 20.188 9.16862 20.736V28.3132H12.109V12.6384C12.1092 12.109 12.5547 11.6845 13.069 11.6843C13.5966 11.6843 14.0298 12.0955 14.0299 12.6384V28.3132H16.9704V6.58368C16.9705 6.05364 17.4157 5.62786 17.9303 5.62762C18.4598 5.62762 18.8911 6.05553 18.8913 6.58368V28.3132H21.8317V16.6725C21.8317 16.1444 22.2778 15.7224 22.7917 15.7224C23.319 15.7224 23.7516 16.1359 23.7516 16.6725V28.3132H25.234C26.9217 28.3132 28.3131 26.9258 28.3131 25.2341V5.76532C28.313 4.07776 26.9257 2.68719 25.234 2.68719H5.76627Z" fill="#032B64" stroke="#032B64" stroke-width="0.3"/>
</svg>
