<svg width="37" height="37" viewBox="0 0 37 37" fill="none" xmlns="http://www.w3.org/2000/svg">
<path d="M18.5 23.2727C21.1359 23.2727 23.2727 21.1359 23.2727 18.5C23.2727 15.8641 21.1359 13.7273 18.5 13.7273C15.8641 13.7273 13.7273 15.8641 13.7273 18.5C13.7273 21.1359 15.8641 23.2727 18.5 23.2727Z" stroke="#032B64" stroke-width="2" stroke-linecap="round" stroke-linejoin="round"/>
<path d="M30.2727 23.2727C30.061 23.7526 29.9978 24.2849 30.0914 24.8009C30.1849 25.317 30.431 25.7932 30.7977 26.1682L30.8932 26.2636C31.189 26.5591 31.4237 26.9101 31.5838 27.2963C31.7439 27.6826 31.8264 28.0966 31.8264 28.5148C31.8264 28.9329 31.7439 29.347 31.5838 29.7332C31.4237 30.1195 31.189 30.4704 30.8932 30.7659C30.5977 31.0617 30.2468 31.2964 29.8605 31.4566C29.4742 31.6167 29.0602 31.6991 28.642 31.6991C28.2239 31.6991 27.8099 31.6167 27.4236 31.4566C27.0373 31.2964 26.6864 31.0617 26.3909 30.7659L26.2955 30.6705C25.9205 30.3037 25.4443 30.0577 24.9282 29.9641C24.4121 29.8705 23.8798 29.9337 23.4 30.1455C22.9295 30.3471 22.5282 30.682 22.2455 31.1088C21.9628 31.5356 21.8111 32.0358 21.8091 32.5477V32.8182C21.8091 33.6621 21.4739 34.4714 20.8772 35.0681C20.2805 35.6648 19.4711 36 18.6273 36C17.7834 36 16.9741 35.6648 16.3774 35.0681C15.7807 34.4714 15.4455 33.6621 15.4455 32.8182V32.675C15.4331 32.1484 15.2627 31.6377 14.9563 31.2093C14.6498 30.7809 14.2216 30.4545 13.7273 30.2727C13.2474 30.061 12.7151 29.9978 12.1991 30.0914C11.683 30.1849 11.2068 30.431 10.8318 30.7977L10.7364 30.8932C10.4409 31.189 10.0899 31.4237 9.70367 31.5838C9.31741 31.7439 8.90337 31.8264 8.48523 31.8264C8.06709 31.8264 7.65305 31.7439 7.26678 31.5838C6.88051 31.4237 6.5296 31.189 6.23409 30.8932C5.93826 30.5977 5.70357 30.2468 5.54345 29.8605C5.38332 29.4742 5.30091 29.0602 5.30091 28.642C5.30091 28.2239 5.38332 27.8099 5.54345 27.4236C5.70357 27.0373 5.93826 26.6864 6.23409 26.3909L6.32955 26.2955C6.69631 25.9205 6.94234 25.4443 7.03592 24.9282C7.12949 24.4121 7.06632 23.8798 6.85455 23.4C6.65288 22.9295 6.31802 22.5282 5.89119 22.2455C5.46437 21.9628 4.96421 21.8111 4.45227 21.8091H4.18182C3.33795 21.8091 2.52864 21.4739 1.93193 20.8772C1.33523 20.2805 1 19.4711 1 18.6273C1 17.7834 1.33523 16.9741 1.93193 16.3774C2.52864 15.7807 3.33795 15.4455 4.18182 15.4455H4.325C4.85158 15.4331 5.36228 15.2627 5.7907 14.9563C6.21913 14.6498 6.54546 14.2216 6.72727 13.7273C6.93905 13.2474 7.00222 12.7151 6.90864 12.1991C6.81507 11.683 6.56904 11.2068 6.20227 10.8318L6.10682 10.7364C5.81098 10.4409 5.5763 10.0899 5.41617 9.70367C5.25605 9.31741 5.17363 8.90337 5.17363 8.48523C5.17363 8.06709 5.25605 7.65305 5.41617 7.26678C5.5763 6.88051 5.81098 6.5296 6.10682 6.23409C6.40232 5.93826 6.75324 5.70357 7.13951 5.54345C7.52577 5.38332 7.93981 5.30091 8.35795 5.30091C8.77609 5.30091 9.19013 5.38332 9.5764 5.54345C9.96267 5.70357 10.3136 5.93826 10.6091 6.23409L10.7045 6.32955C11.0795 6.69631 11.5557 6.94234 12.0718 7.03592C12.5879 7.12949 13.1202 7.06632 13.6 6.85455H13.7273C14.1978 6.65288 14.5991 6.31802 14.8818 5.89119C15.1644 5.46437 15.3161 4.96421 15.3182 4.45227V4.18182C15.3182 3.33795 15.6534 2.52864 16.2501 1.93193C16.8468 1.33523 17.6561 1 18.5 1C19.3439 1 20.1532 1.33523 20.7499 1.93193C21.3466 2.52864 21.6818 3.33795 21.6818 4.18182V4.325C21.6839 4.83693 21.8356 5.3371 22.1182 5.76392C22.4009 6.19075 22.8022 6.5256 23.2727 6.72727C23.7526 6.93905 24.2849 7.00222 24.8009 6.90864C25.317 6.81507 25.7932 6.56904 26.1682 6.20227L26.2636 6.10682C26.5591 5.81098 26.9101 5.5763 27.2963 5.41617C27.6826 5.25605 28.0966 5.17363 28.5148 5.17363C28.9329 5.17363 29.347 5.25605 29.7332 5.41617C30.1195 5.5763 30.4704 5.81098 30.7659 6.10682C31.0617 6.40232 31.2964 6.75324 31.4566 7.13951C31.6167 7.52577 31.6991 7.93981 31.6991 8.35795C31.6991 8.77609 31.6167 9.19013 31.4566 9.5764C31.2964 9.96267 31.0617 10.3136 30.7659 10.6091L30.6705 10.7045C30.3037 11.0795 30.0577 11.5557 29.9641 12.0718C29.8705 12.5879 29.9337 13.1202 30.1455 13.6V13.7273C30.3471 14.1978 30.682 14.5991 31.1088 14.8818C31.5356 15.1644 32.0358 15.3161 32.5477 15.3182H32.8182C33.6621 15.3182 34.4714 15.6534 35.0681 16.2501C35.6648 16.8468 36 17.6561 36 18.5C36 19.3439 35.6648 20.1532 35.0681 20.7499C34.4714 21.3466 33.6621 21.6818 32.8182 21.6818H32.675C32.1631 21.6839 31.6629 21.8356 31.2361 22.1182C30.8093 22.4009 30.4744 22.8022 30.2727 23.2727Z" stroke="#032B64" stroke-width="2" stroke-linecap="round" stroke-linejoin="round"/>
</svg>
