<svg width="110" height="44" viewBox="0 0 110 44" fill="none" xmlns="http://www.w3.org/2000/svg">
<path d="M18.2737 36.5949C17.9906 37.0863 17.5844 37.4942 17.0956 37.7777C16.6069 38.0613 16.0527 38.2105 15.4886 38.2105C14.9246 38.2105 14.3704 38.0613 13.8816 37.7777C13.3929 37.4942 12.9866 37.0863 12.7036 36.5949M25.1477 15.5175C25.1477 12.9375 24.1301 10.4631 22.3186 8.63875C20.5072 6.81439 18.0504 5.78947 15.4886 5.78947C12.9269 5.78947 10.4701 6.81439 8.65863 8.63875C6.8472 10.4631 5.82955 12.9375 5.82955 15.5175C5.82955 26.8669 1 30.1096 1 30.1096H29.9773C29.9773 30.1096 25.1477 26.8669 25.1477 15.5175Z" stroke="#032B64" stroke-width="1.2" stroke-linecap="round" stroke-linejoin="round"/>
<ellipse cx="24.7614" cy="7.52632" rx="6.375" ry="6.36842" fill="#FC003C"/>
<ellipse cx="87.9318" cy="22" rx="22.0227" ry="22" fill="white"/>
</svg>
