<svg width="35" height="35" viewBox="0 0 35 35" fill="none" xmlns="http://www.w3.org/2000/svg">
<path d="M14.5833 30.625H6.375C5.27043 30.625 4.375 29.7296 4.375 28.625V17.5678C4.375 17.056 4.57115 16.5638 4.92309 16.1923L16.0481 4.44922C16.837 3.61654 18.1631 3.61654 18.9519 4.44922L30.0769 16.1923C30.4288 16.5638 30.625 17.056 30.625 17.5678V28.625C30.625 29.7296 29.7296 30.625 28.625 30.625H20.4167M14.5833 30.625V22.375C14.5833 22.0988 14.8072 21.875 15.0833 21.875H19.9167C20.1928 21.875 20.4167 22.0988 20.4167 22.375V30.625M14.5833 30.625H20.4167" stroke="#032B64" stroke-width="2"/>
</svg>
