<svg width="27" height="21" viewBox="0 0 27 21" fill="none" xmlns="http://www.w3.org/2000/svg">
<path d="M0.375 1.75001C0.375 1.36323 0.528645 0.992298 0.802136 0.718808C1.07563 0.445317 1.44656 0.291672 1.83333 0.291672H25.1667C25.5534 0.291672 25.9244 0.445317 26.1979 0.718808C26.4714 0.992298 26.625 1.36323 26.625 1.75001C26.625 2.13678 26.4714 2.50771 26.1979 2.7812C25.9244 3.05469 25.5534 3.20834 25.1667 3.20834H1.83333C1.44656 3.20834 1.07563 3.05469 0.802136 2.7812C0.528645 2.50771 0.375 2.13678 0.375 1.75001ZM25.1667 9.04167H1.83333C1.44656 9.04167 1.07563 9.19532 0.802136 9.46881C0.528645 9.7423 0.375 10.1132 0.375 10.5C0.375 10.8868 0.528645 11.2577 0.802136 11.5312C1.07563 11.8047 1.44656 11.9583 1.83333 11.9583H25.1667C25.5534 11.9583 25.9244 11.8047 26.1979 11.5312C26.4714 11.2577 26.625 10.8868 26.625 10.5C26.625 10.1132 26.4714 9.7423 26.1979 9.46881C25.9244 9.19532 25.5534 9.04167 25.1667 9.04167ZM25.1667 17.7917H1.83333C1.44656 17.7917 1.07563 17.9453 0.802136 18.2188C0.528645 18.4923 0.375 18.8632 0.375 19.25C0.375 19.6368 0.528645 20.0077 0.802136 20.2812C1.07563 20.5547 1.44656 20.7083 1.83333 20.7083H25.1667C25.5534 20.7083 25.9244 20.5547 26.1979 20.2812C26.4714 20.0077 26.625 19.6368 26.625 19.25C26.625 18.8632 26.4714 18.4923 26.1979 18.2188C25.9244 17.9453 25.5534 17.7917 25.1667 17.7917Z" fill="#032B64"/>
</svg>
